# xmcd
#
# Track frame offsets: 
#        150
#        15520
#        32047
#        52769
#        72078
#        87990
#        106770
#        128196
#        142961
#        164204
#        182449
#
# Disc length: 2727 seconds
#
# Revision: 4
# Processed by: cddbd v1.5.2PL0 Copyright (c) Steve Scherf et al.
# Submitted via: ExactAudioCopy v0.95b4
#
DISCID=870aa50b
DTITLE=Home Groan - Racoon
DYEAR=2002
DGENRE=Organic Rock
TTITLE0=The Darkest Sword
TTITLE1=Maximum Amount
TTITLE2=Emergency Exit
TTITLE3=On And On She's Gone
TTITLE4=In The Heart Of The Land
TTITLE5=Pretty Little Human Weed
TTITLE6=Foreign Legion Lovable Guy
TTITLE7=Another Great Day
TTITLE8=Prison Girl
TTITLE9=Confession
TTITLE10=Talking To Myself
EXTD=
EXTT0=
EXTT1=
EXTT2=
EXTT3=
EXTT4=
EXTT5=
EXTT6=
EXTT7=
EXTT8=
EXTT9=
EXTT10=
PLAYORDER=
